PathFileType	4	(X/Y/Z)	anato.trc
DataRate	CameraRate	NumFrames	NumMarkers	Units	OrigDataRate	OrigDataStartFrame	OrigNumFrames
100.0	100.0	11	17	mm	100.0	310	618
Frame#	Time	STER			XIPH			T10			T1			CLAV_SC			CLAV_AC			SCAP_AA			SCAP_CP			SCAP_TS			SCAP_IA			DELT			ARMl			EPICm			EPICl			LARM_elb			STYLr			STYLu		
		X1	Y1	Z1	X2	Y2	Z2	X3	Y3	Z3	X4	Y4	Z4	X5	Y5	Z5	X6	Y6	Z6	X7	Y7	Z7	X8	Y8	Z8	X9	Y9	Z9	X10	Y10	Z10	X11	Y11	Z11	X12	Y12	Z12	X13	Y13	Z13	X14	Y14	Z14	X15	Y15	Z15	X16	Y16	Z16	X17	Y17	Z17

310	3.09	378.8569030761719	30.104854583740234	1430.3995361328125	380.2774353027344	81.0637435913086	1272.0169677734375	369.6180725097656	-148.8676300048828	1236.057861328125	362.0102233886719	-125.90521240234375	1477.71826171875	414.0172119140625	21.88442611694336	1437.64111328125	563.5985717773438	-51.53871154785156	1463.11767578125	568.3694458007812	-97.83232116699219	1447.909423828125	511.49102783203125	-103.31365966796875	1477.60986328125	496.5489807128906	-160.16555786132812	1424.888671875	478.08251953125	-171.9757537841797	1282.78662109375	644.7614135742188	-78.70108032226562	1321.1903076171875	663.2421264648438	-90.67510986328125	1275.93701171875	668.4413452148438	-32.7259407043457	1117.2447509765625	730.8175659179688	-96.91604614257812	1174.01123046875	683.7560424804688	-77.86600494384766	1109.9410400390625	931.8546752929688	7.726495742797852	1009.7413330078125	864.4691162109375	12.296464920043945	960.2604370117188
311	3.1	378.69085693359375	30.135631561279297	1430.3424072265625	380.1023864746094	81.02904510498047	1271.9661865234375	369.4107666015625	-148.847900390625	1236.0384521484375	361.440185546875	-125.65117645263672	1477.904296875	413.88238525390625	21.892684936523438	1437.675048828125	563.2298583984375	-51.5888557434082	1463.263916015625	567.9840698242188	-97.88957214355469	1448.0595703125	510.9505615234375	-103.34343719482422	1477.733642578125	496.0498352050781	-160.19496154785156	1425.119384765625	477.81982421875	-172.0631866455078	1282.9166259765625	644.4552001953125	-78.79935455322266	1321.35693359375	662.9881591796875	-90.75443267822266	1276.1171875	668.1204833984375	-32.94185256958008	1117.463134765625	730.5328369140625	-97.0067138671875	1174.30078125	683.6670532226562	-77.96257781982422	1110.1568603515625	931.8644409179688	7.6469597816467285	1010.1583862304688	864.4019165039062	12.171250343322754	960.5157470703125
312	3.11	378.3999328613281	30.186460494995117	1430.299560546875	379.95452880859375	81.04046630859375	1271.919677734375	369.20977783203125	-148.7921905517578	1236.06884765625	360.8842468261719	-125.36148834228516	1478.139404296875	413.74542236328125	21.923877716064453	1437.689697265625	562.8939208984375	-51.61592483520508	1463.3487548828125	567.639404296875	-97.93376922607422	1448.16748046875	510.4646301269531	-103.33879089355469	1477.8387451171875	495.593505859375	-160.21788024902344	1425.249755859375	477.635986328125	-172.13685607910156	1283.0562744140625	644.2561645507812	-78.84642028808594	1321.381103515625	662.72900390625	-90.83816528320312	1276.2750244140625	668.1228637695312	-33.03934860229492	1117.5467529296875	730.3765869140625	-97.12134552001953	1174.4736328125	683.52392578125	-78.04718780517578	1110.3193359375	932.139892578125	7.498891353607178	1010.64404296875	864.4710083007812	12.080833435058594	960.8954467773438
313	3.12	378.17864990234375	30.263017654418945	1430.317626953125	379.8036804199219	81.0588607788086	1271.8853759765625	369.0422058105469	-148.74998474121094	1236.090576171875	360.3265686035156	-125.0724105834961	1478.3726806640625	413.5653076171875	21.93838882446289	1437.7286376953125	562.584228515625	-51.661197662353516	1463.458251953125	567.3026733398438	-97.96892547607422	1448.28515625	510.0248718261719	-103.32217407226562	1477.914794921875	495.1835021972656	-160.21095275878906	1425.3861083984375	477.27716064453125	-172.20738220214844	1283.21826171875	644.0910034179688	-78.89546203613281	1321.5029296875	662.485107421875	-90.93830871582031	1276.4361572265625	667.9207153320312	-33.168128967285156	1117.733154296875	730.2395629882812	-97.20404052734375	1174.640869140625	683.4375	-78.13976287841797	1110.470703125	931.7691650390625	7.395707607269287	1010.9127197265625	864.5357055664062	11.972660064697266	961.2451171875
314	3.13	378.1253662109375	30.37616539001465	1430.3275146484375	379.6640319824219	81.06682586669922	1271.862060546875	368.8421936035156	-148.6880645751953	1236.111572265625	359.7857360839844	-124.78974914550781	1478.594482421875	413.447509765625	21.990339279174805	1437.747314453125	562.1674194335938	-51.66987609863281	1463.5355224609375	566.919677734375	-97.98262786865234	1448.3720703125	509.5604553222656	-103.27865600585938	1477.981201171875	494.656005859375	-160.21701049804688	1425.571533203125	476.8961486816406	-172.28285217285156	1283.3994140625	643.8836669921875	-78.96189880371094	1321.6248779296875	662.2612915039062	-91.00882720947266	1276.5645751953125	667.7755737304688	-33.272621154785156	1117.9588623046875	729.894287109375	-97.32750701904297	1174.8270263671875	683.3206787109375	-78.24996948242188	1110.6461181640625	932.1428833007812	7.215341091156006	1011.3715209960938	864.5408325195312	11.846921920776367	961.501953125
315	3.14	377.98529052734375	30.424396514892578	1430.328369140625	379.5641174316406	81.12081146240234	1271.8343505859375	368.66888427734375	-148.6073760986328	1236.1248779296875	359.2672424316406	-124.47712707519531	1478.7926025390625	413.33099365234375	22.070932388305664	1437.7781982421875	561.8195190429688	-51.6748046875	1463.6644287109375	566.5518188476562	-97.95706939697266	1448.47265625	509.17388916015625	-103.20770263671875	1478.085693359375	494.2392272949219	-160.20294189453125	1425.7579345703125	476.505615234375	-172.3358154296875	1283.5924072265625	643.4722900390625	-79.0417251586914	1321.917724609375	662.0640258789062	-91.057861328125	1276.7227783203125	667.7006225585938	-33.37813186645508	1118.148681640625	729.92529296875	-97.43391418457031	1174.935546875	683.25634765625	-78.36884307861328	1110.7896728515625	931.799072265625	7.021019458770752	1011.5960083007812	864.5606079101562	11.671260833740234	961.7659301757812
316	3.15	377.92584228515625	30.480907440185547	1430.3489990234375	379.4412841796875	81.17081451416016	1271.833984375	368.47772216796875	-148.539306640625	1236.149658203125	358.8406982421875	-124.22660064697266	1478.967041015625	413.1606140136719	22.078876495361328	1437.8072509765625	561.5466918945312	-51.68301010131836	1463.7296142578125	566.2286376953125	-97.97077941894531	1448.57275390625	508.8388977050781	-103.12510681152344	1478.1590576171875	493.8985900878906	-160.1639404296875	1425.9344482421875	476.2655334472656	-172.36729431152344	1283.7364501953125	644.14404296875	-79.02392578125	1322.2669677734375	661.885009765625	-91.1211166381836	1276.8551025390625	667.4646606445312	-33.61025619506836	1118.265869140625	729.7205200195312	-97.55228424072266	1175.1817626953125	683.1932983398438	-78.48312377929688	1110.9337158203125	932.199951171875	6.881570816040039	1012.0379638671875	864.6241455078125	11.482983589172363	962.0640869140625
317	3.16	377.868896484375	30.590091705322266	1430.3292236328125	379.30865478515625	81.2341079711914	1271.81689453125	368.2914733886719	-148.4309844970703	1236.1658935546875	358.3450927734375	-123.92918395996094	1479.1427001953125	412.9689636230469	22.093278884887695	1437.8438720703125	561.3018188476562	-51.68121337890625	1463.83251953125	566.0073852539062	-97.95574951171875	1448.6651611328125	508.4169006347656	-103.10594940185547	1478.2611083984375	493.5055236816406	-160.13548278808594	1426.1578369140625	476.0176086425781	-172.39059448242188	1283.872314453125	643.2254638671875	-79.06652069091797	1322.0303955078125	661.7094116210938	-91.17093658447266	1276.9952392578125	667.5535888671875	-33.65502166748047	1118.3048095703125	729.7332153320312	-97.64424896240234	1175.4149169921875	683.136474609375	-78.55741119384766	1111.087890625	931.875732421875	6.688891410827637	1012.2156372070312	864.7088012695312	11.314813613891602	962.3319091796875
318	3.17	377.8351745605469	30.685728073120117	1430.3538818359375	379.2482604980469	81.30939483642578	1271.8258056640625	368.133056640625	-148.34304809570312	1236.18505859375	357.9608459472656	-123.69160461425781	1479.2841796875	412.86328125	22.111719131469727	1437.8758544921875	561.0267333984375	-51.68934631347656	1463.8515625	565.7545166015625	-97.94583892822266	1448.7427978515625	508.0772399902344	-103.044189453125	1478.296875	493.0662841796875	-160.1142578125	1426.3223876953125	475.6795959472656	-172.39895629882812	1284.0919189453125	643.0984497070312	-79.08324432373047	1322.1334228515625	661.5547485351562	-91.21556091308594	1277.133544921875	667.451416015625	-33.76313400268555	1118.4615478515625	729.4629516601562	-97.73873138427734	1175.6177978515625	683.0606079101562	-78.64443969726562	1111.2186279296875	932.3372802734375	6.54965877532959	1012.6547241210938	864.7666015625	11.16869068145752	962.5206909179688
319	3.18	377.8150329589844	30.791385650634766	1430.3250732421875	378.9346923828125	81.38738250732422	1271.7728271484375	367.9659423828125	-148.2632293701172	1236.228271484375	357.62371826171875	-123.44083404541016	1479.4444580078125	412.7486267089844	22.150379180908203	1437.904541015625	560.7959594726562	-51.692501068115234	1463.84423828125	565.4546508789062	-97.96855926513672	1448.778076171875	507.8105773925781	-103.0239486694336	1478.336669921875	492.7830505371094	-160.0850830078125	1426.302001953125	475.56195068359375	-172.3944854736328	1284.1429443359375	643.66259765625	-79.13651275634766	1322.61767578125	661.4129028320312	-91.27926635742188	1277.2293701171875	667.3538208007812	-33.901947021484375	1118.549560546875	729.4038696289062	-97.8257064819336	1175.703857421875	683.0206909179688	-78.71040344238281	1111.3431396484375	932.011962890625	6.3039703369140625	1012.7936401367188	864.5423583984375	10.971811294555664	962.5469360351562
320	3.19	377.7984924316406	30.91117286682129	1430.3525390625	379.13995361328125	81.46195220947266	1271.8026123046875	367.83453369140625	-148.15443420410156	1236.2296142578125	357.3091735839844	-123.17694854736328	1479.6083984375	412.67041015625	22.18825912475586	1437.913818359375	560.6322021484375	-51.716819763183594	1463.94287109375	565.2544555664062	-98.00751495361328	1448.837890625	507.54559326171875	-102.99858093261719	1478.389404296875	492.4468078613281	-160.09510803222656	1426.508544921875	475.4089660644531	-172.4080047607422	1284.271484375	642.5352783203125	-79.30989074707031	1322.68115234375	661.3046264648438	-91.33531188964844	1277.3297119140625	667.3355712890625	-33.94890594482422	1118.6761474609375	729.0243530273438	-97.92478942871094	1175.85107421875	682.9973754882812	-78.75938415527344	1111.461181640625	932.42724609375	6.031401634216309	1013.0982666015625	864.671630859375	10.796215057373047	962.770263671875
